<svg xmlns="http://www.w3.org/2000/svg" fill="dark" width="92" height="32">
     <path  d="M 28.238281 20.144531 L 25.394531 17.292969 L 25.394531 1 C 25.394531 0.726562 25.171875 0.5 24.898438 0.5 L 4.980469 0.5 C 4.707031 0.5 4.480469 0.726562 4.480469 1 L 4.480469 28 C 4.480469 28.273438 4.707031 28.5 4.980469 28.5 L 19.417969 28.5 L 19.417969 31 C 19.417969 31.273438 19.644531 31.5 19.917969 31.5 L 24.898438 31.5 C 25.171875 31.5 25.394531 31.273438 25.394531 31 L 25.394531 29.707031 L 28.238281 26.847656 C 28.332031 26.753906 28.382812 26.628906 28.382812 26.492188 L 28.382812 20.492188 C 28.382812 20.367188 28.332031 20.238281 28.238281 20.144531 Z M 19.417969 20.5 L 19.417969 27.5 L 5.476562 27.5 L 5.476562 1.5 L 24.398438 1.5 L 24.398438 23.5 L 23.902344 23.5 C 23.628906 23.5 23.402344 23.273438 23.402344 23 L 23.402344 20.5 C 23.402344 19.398438 22.507812 18.5 21.410156 18.5 C 20.316406 18.5 19.417969 19.398438 19.417969 20.5 Z M 27.386719 26.292969 L 24.542969 29.148438 C 24.449219 29.242188 24.398438 29.367188 24.398438 29.503906 L 24.398438 30.503906 L 20.414062 30.503906 L 20.414062 20.5 C 20.414062 19.949219 20.863281 19.5 21.410156 19.5 C 21.960938 19.5 22.40625 19.949219 22.40625 20.5 L 22.40625 23 C 22.40625 23.824219 23.078125 24.5 23.902344 24.5 L 24.898438 24.5 C 25.171875 24.5 25.394531 24.273438 25.394531 24 L 25.394531 18.707031 L 27.386719 20.707031 Z M 27.386719 26.292969 "/>
     <path  d="M 22.898438 15.5 C 23.171875 15.5 23.398438 15.273438 23.398438 15 L 23.398438 3 C 23.398438 2.726562 23.171875 2.5 22.898438 2.5 L 6.964844 2.5 C 6.691406 2.5 6.46875 2.726562 6.46875 3 L 6.46875 15 C 6.46875 15.273438 6.691406 15.5 6.964844 15.5 Z M 7.460938 3.5 L 22.402344 3.5 L 22.402344 14.5 L 7.460938 14.5 Z M 7.460938 3.5 "/>
     <path  d="M 6.972656 16.75 L 22.90625 16.75 L 22.90625 17.75 L 6.972656 17.75 Z M 6.972656 16.75 "/>
     <path  d="M 6.972656 19.332031 L 18.421875 19.332031 L 18.421875 20.332031 L 6.972656 20.332031 Z M 6.972656 19.332031 "/>
     <path  d="M 6.972656 21.917969 L 18.421875 21.917969 L 18.421875 22.917969 L 6.972656 22.917969 Z M 6.972656 21.917969 "/>
     <path  d="M 6.972656 24.5 L 18.421875 24.5 L 18.421875 25.5 L 6.972656 25.5 Z M 6.972656 24.5 "/>
     <path  d="M 8.84375 9.320312 C 8.8125 9.320312 8.78125 9.308594 8.765625 9.28125 C 8.738281 9.257812 8.726562 9.230469 8.726562 9.195312 L 8.726562 8.851562 C 8.726562 8.800781 8.738281 8.761719 8.757812 8.730469 C 8.777344 8.699219 8.792969 8.683594 8.800781 8.667969 L 10.507812 6.457031 L 8.894531 6.457031 C 8.855469 6.457031 8.832031 6.445312 8.808594 6.417969 C 8.789062 6.394531 8.777344 6.371094 8.777344 6.339844 L 8.777344 6 C 8.777344 5.964844 8.789062 5.9375 8.808594 5.914062 C 8.824219 5.886719 8.855469 5.875 8.894531 5.875 L 11.234375 5.875 C 11.273438 5.875 11.296875 5.886719 11.320312 5.914062 C 11.347656 5.9375 11.359375 5.964844 11.359375 6 L 11.359375 6.339844 C 11.359375 6.375 11.351562 6.414062 11.339844 6.4375 C 11.328125 6.464844 11.316406 6.488281 11.296875 6.511719 L 9.628906 8.738281 L 11.296875 8.738281 C 11.335938 8.738281 11.359375 8.75 11.382812 8.777344 C 11.410156 8.800781 11.421875 8.824219 11.421875 8.863281 L 11.421875 9.207031 C 11.421875 9.238281 11.410156 9.269531 11.382812 9.289062 C 11.359375 9.3125 11.335938 9.324219 11.296875 9.324219 L 8.84375 9.324219 Z M 8.84375 9.320312 "/>
     <path  d="M 12.09375 9.320312 C 12.0625 9.320312 12.03125 9.308594 12.011719 9.28125 C 11.988281 9.257812 11.976562 9.230469 11.976562 9.199219 L 11.976562 6 C 11.976562 5.964844 11.988281 5.9375 12.011719 5.914062 C 12.039062 5.886719 12.0625 5.875 12.09375 5.875 L 14.246094 5.875 C 14.285156 5.875 14.308594 5.886719 14.335938 5.914062 C 14.359375 5.9375 14.371094 5.964844 14.371094 6 L 14.371094 6.324219 C 14.371094 6.355469 14.359375 6.386719 14.335938 6.40625 C 14.308594 6.433594 14.285156 6.445312 14.246094 6.445312 L 12.636719 6.445312 L 12.636719 7.3125 L 14.140625 7.3125 C 14.179688 7.3125 14.203125 7.324219 14.230469 7.34375 C 14.253906 7.363281 14.265625 7.394531 14.265625 7.433594 L 14.265625 7.738281 C 14.265625 7.777344 14.253906 7.800781 14.230469 7.824219 C 14.203125 7.84375 14.179688 7.855469 14.140625 7.855469 L 12.636719 7.855469 L 12.636719 8.757812 L 14.285156 8.757812 C 14.320312 8.757812 14.347656 8.769531 14.371094 8.792969 C 14.398438 8.820312 14.410156 8.84375 14.410156 8.882812 L 14.410156 9.207031 C 14.410156 9.238281 14.398438 9.269531 14.371094 9.289062 C 14.347656 9.3125 14.320312 9.324219 14.285156 9.324219 L 12.09375 9.324219 Z M 12.09375 9.320312 "/>
     <path  d="M 15.136719 9.320312 C 15.105469 9.320312 15.074219 9.308594 15.054688 9.28125 C 15.03125 9.257812 15.019531 9.230469 15.019531 9.199219 L 15.019531 6 C 15.019531 5.964844 15.03125 5.9375 15.054688 5.914062 C 15.082031 5.886719 15.105469 5.875 15.136719 5.875 L 16.40625 5.875 C 16.800781 5.875 17.117188 5.96875 17.339844 6.152344 C 17.570312 6.332031 17.683594 6.601562 17.683594 6.949219 C 17.683594 7.195312 17.621094 7.394531 17.503906 7.558594 C 17.382812 7.71875 17.222656 7.832031 17.023438 7.90625 L 17.738281 9.164062 C 17.75 9.183594 17.75 9.199219 17.75 9.21875 C 17.75 9.25 17.738281 9.277344 17.71875 9.292969 C 17.703125 9.3125 17.675781 9.324219 17.652344 9.324219 L 17.203125 9.324219 C 17.148438 9.324219 17.105469 9.3125 17.078125 9.28125 C 17.046875 9.25 17.03125 9.226562 17.011719 9.195312 L 16.375 8.03125 L 15.699219 8.03125 L 15.699219 9.214844 C 15.699219 9.246094 15.683594 9.277344 15.667969 9.292969 C 15.648438 9.320312 15.617188 9.332031 15.578125 9.332031 L 15.136719 9.332031 Z M 15.703125 7.46875 L 16.394531 7.46875 C 16.59375 7.46875 16.742188 7.425781 16.84375 7.332031 C 16.941406 7.246094 16.992188 7.113281 16.992188 6.949219 C 16.992188 6.789062 16.941406 6.65625 16.847656 6.5625 C 16.753906 6.46875 16.605469 6.425781 16.402344 6.425781 L 15.710938 6.425781 L 15.710938 7.46875 Z M 15.703125 7.46875 "/>
     <path  d="M 19.625 9.371094 C 19.332031 9.371094 19.082031 9.320312 18.878906 9.226562 C 18.667969 9.132812 18.503906 8.980469 18.386719 8.777344 C 18.269531 8.574219 18.207031 8.320312 18.191406 8.019531 C 18.1875 7.875 18.1875 7.738281 18.1875 7.601562 C 18.1875 7.464844 18.1875 7.320312 18.191406 7.175781 C 18.207031 6.875 18.269531 6.625 18.386719 6.425781 C 18.503906 6.226562 18.671875 6.074219 18.882812 5.976562 C 19.097656 5.875 19.339844 5.824219 19.617188 5.824219 C 19.898438 5.824219 20.148438 5.875 20.359375 5.976562 C 20.570312 6.074219 20.738281 6.226562 20.855469 6.425781 C 20.976562 6.625 21.042969 6.875 21.050781 7.175781 C 21.054688 7.320312 21.0625 7.464844 21.0625 7.601562 C 21.0625 7.738281 21.054688 7.875 21.050781 8.019531 C 21.039062 8.320312 20.976562 8.574219 20.855469 8.777344 C 20.738281 8.976562 20.578125 9.125 20.367188 9.226562 C 20.167969 9.320312 19.917969 9.371094 19.625 9.371094 Z M 19.625 8.808594 C 19.835938 8.808594 20.011719 8.746094 20.140625 8.621094 C 20.277344 8.496094 20.347656 8.289062 20.359375 8 C 20.367188 7.855469 20.371094 7.726562 20.371094 7.601562 C 20.371094 7.476562 20.367188 7.34375 20.359375 7.207031 C 20.351562 7.019531 20.316406 6.863281 20.253906 6.746094 C 20.191406 6.625 20.105469 6.539062 20 6.480469 C 19.890625 6.425781 19.769531 6.402344 19.625 6.402344 C 19.488281 6.402344 19.363281 6.425781 19.257812 6.480469 C 19.152344 6.539062 19.066406 6.625 19.003906 6.746094 C 18.941406 6.863281 18.902344 7.019531 18.898438 7.207031 C 18.890625 7.351562 18.890625 7.480469 18.890625 7.601562 C 18.890625 7.726562 18.890625 7.855469 18.898438 8 C 18.910156 8.289062 18.976562 8.496094 19.113281 8.621094 C 19.246094 8.738281 19.417969 8.808594 19.625 8.808594 Z M 19.625 8.808594 "/>
    </svg>