<?xml version="1.0" encoding="utf-8"?>
<!-- Generator: Adobe Illustrator 24.3.0, SVG Export Plug-In . SVG Version: 6.00 Build 0)  -->
<svg version="1.1" id="Layer_1" xmlns="http://www.w3.org/2000/svg" xmlns:xlink="http://www.w3.org/1999/xlink" x="0px" y="0px"
	 viewBox="0 0 92 32" style="enable-background:new 0 0 92 32;" xml:space="preserve">
<style type="text/css">
	.st0{fill:#F5EBE0;}
</style>
<polygon class="st0" points="27.4,20.7 24.4,17.7 24.4,1.5 5.5,1.5 5.5,27.5 20.4,27.5 20.4,30.5 24.4,30.5 24.4,29.5 27.4,26.3 "/>
<path d="M28.2,20.1l-2.8-2.9V1c0-0.3-0.2-0.5-0.5-0.5H5C4.7,0.5,4.5,0.7,4.5,1v27c0,0.3,0.2,0.5,0.5,0.5h14.4V31
	c0,0.3,0.2,0.5,0.5,0.5h5c0.3,0,0.5-0.2,0.5-0.5v-1.3l2.8-2.9c0.1-0.1,0.1-0.2,0.1-0.4v-6C28.4,20.4,28.3,20.2,28.2,20.1z
	 M19.4,20.5v7H5.5v-26h18.9v22h-0.5c-0.3,0-0.5-0.2-0.5-0.5v-2.5c0-1.1-0.9-2-2-2C20.3,18.5,19.4,19.4,19.4,20.5z M27.4,26.3
	l-2.8,2.9c-0.1,0.1-0.1,0.2-0.1,0.4v1h-4v-10c0-0.6,0.4-1,1-1c0.6,0,1,0.4,1,1V23c0,0.8,0.7,1.5,1.5,1.5h1c0.3,0,0.5-0.2,0.5-0.5
	v-5.3l2,2V26.3z M24.4,1.5H5.5 M27.4,20.7"/>
<path d="M22.9,15.5c0.3,0,0.5-0.2,0.5-0.5V3c0-0.3-0.2-0.5-0.5-0.5H7C6.7,2.5,6.5,2.7,6.5,3v12c0,0.3,0.2,0.5,0.5,0.5H22.9z
	 M7.5,3.5h14.9v11H7.5V3.5z"/>
<path d="M7,16.8h15.9v1H7V16.8z"/>
<path d="M7,19.3h11.4v1H7V19.3z"/>
<path d="M7,21.9h11.4v1H7V21.9z"/>
<path d="M7,24.5h11.4v1H7V24.5z"/>
<path d="M8.8,9.3C8.8,9.3,8.8,9.3,8.8,9.3C8.7,9.3,8.7,9.2,8.7,9.2V8.9c0-0.1,0-0.1,0-0.1c0,0,0,0,0-0.1l1.7-2.2H8.9
	c0,0-0.1,0-0.1,0c0,0,0,0,0-0.1V6c0,0,0-0.1,0-0.1c0,0,0,0,0.1,0h2.3c0,0,0.1,0,0.1,0c0,0,0,0.1,0,0.1v0.3c0,0,0,0.1,0,0.1
	c0,0,0,0.1,0,0.1L9.6,8.7h1.7c0,0,0.1,0,0.1,0c0,0,0,0,0,0.1v0.3c0,0,0,0.1,0,0.1c0,0,0,0-0.1,0L8.8,9.3L8.8,9.3z"/>
<path d="M12.1,9.3C12.1,9.3,12,9.3,12.1,9.3C12,9.3,12,9.2,12,9.2V6c0,0,0-0.1,0-0.1c0,0,0.1,0,0.1,0h2.2c0,0,0.1,0,0.1,0
	c0,0,0,0.1,0,0.1v0.3c0,0,0,0.1,0,0.1c0,0-0.1,0-0.1,0h-1.6v0.9h1.5c0,0,0.1,0,0.1,0c0,0,0,0.1,0,0.1v0.3c0,0,0,0.1,0,0.1
	c0,0-0.1,0-0.1,0h-1.5v0.9h1.6c0,0,0.1,0,0.1,0c0,0,0,0.1,0,0.1v0.3c0,0,0,0.1,0,0.1c0,0-0.1,0-0.1,0L12.1,9.3L12.1,9.3z"/>
<path d="M15.1,9.3C15.1,9.3,15.1,9.3,15.1,9.3C15,9.3,15,9.2,15,9.2V6c0,0,0-0.1,0-0.1c0,0,0.1,0,0.1,0h1.3c0.4,0,0.7,0.1,0.9,0.3
	c0.2,0.2,0.3,0.4,0.3,0.8c0,0.2-0.1,0.4-0.2,0.6c-0.1,0.2-0.3,0.3-0.5,0.3l0.7,1.3c0,0,0,0,0,0.1c0,0,0,0.1,0,0.1c0,0,0,0-0.1,0
	h-0.4c-0.1,0-0.1,0-0.1,0c0,0,0-0.1-0.1-0.1L16.4,8h-0.7v1.2c0,0,0,0.1,0,0.1c0,0-0.1,0-0.1,0L15.1,9.3L15.1,9.3z M15.7,7.5h0.7
	c0.2,0,0.3,0,0.4-0.1C16.9,7.2,17,7.1,17,6.9c0-0.2-0.1-0.3-0.1-0.4s-0.2-0.1-0.4-0.1h-0.7L15.7,7.5L15.7,7.5z"/>
<path d="M19.6,9.4c-0.3,0-0.5-0.1-0.7-0.1c-0.2-0.1-0.4-0.2-0.5-0.4S18.2,8.3,18.2,8c0-0.1,0-0.3,0-0.4c0-0.1,0-0.3,0-0.4
	c0-0.3,0.1-0.6,0.2-0.8c0.1-0.2,0.3-0.4,0.5-0.4c0.2-0.1,0.5-0.2,0.7-0.2c0.3,0,0.5,0.1,0.7,0.2c0.2,0.1,0.4,0.2,0.5,0.4
	C21,6.6,21,6.9,21.1,7.2c0,0.1,0,0.3,0,0.4c0,0.1,0,0.3,0,0.4c0,0.3-0.1,0.6-0.2,0.8c-0.1,0.2-0.3,0.3-0.5,0.4
	C20.2,9.3,19.9,9.4,19.6,9.4z M19.6,8.8c0.2,0,0.4-0.1,0.5-0.2c0.1-0.1,0.2-0.3,0.2-0.6c0-0.1,0-0.3,0-0.4s0-0.3,0-0.4
	c0-0.2,0-0.3-0.1-0.5c-0.1-0.1-0.1-0.2-0.3-0.3c-0.1-0.1-0.2-0.1-0.4-0.1c-0.1,0-0.3,0-0.4,0.1c-0.1,0.1-0.2,0.1-0.3,0.3
	c-0.1,0.1-0.1,0.3-0.1,0.5c0,0.1,0,0.3,0,0.4c0,0.1,0,0.3,0,0.4c0,0.3,0.1,0.5,0.2,0.6C19.2,8.7,19.4,8.8,19.6,8.8z"/>
<path d="M33.1,28.7c-0.1,0-0.3-0.1-0.3-0.1s-0.1-0.2-0.1-0.4v-1.4c0-0.2,0-0.4,0.1-0.5s0.1-0.2,0.2-0.3l7.1-9.3h-6.8
	c-0.2,0-0.3-0.1-0.4-0.1c-0.1-0.1-0.1-0.2-0.1-0.4v-1.4c0-0.2,0-0.3,0.1-0.4c0.1-0.1,0.2-0.1,0.4-0.1h9.8c0.2,0,0.3,0.1,0.4,0.1
	c0.1,0.1,0.1,0.2,0.1,0.4v1.4c0,0.2,0,0.3-0.1,0.4c-0.1,0.1-0.1,0.2-0.2,0.3l-7,9.3h7c0.2,0,0.3,0.1,0.4,0.1
	c0.1,0.1,0.1,0.2,0.1,0.4v1.4c0,0.1-0.1,0.3-0.1,0.3c-0.1,0.1-0.2,0.1-0.4,0.1L33.1,28.7L33.1,28.7z"/>
<path d="M46.7,28.7c-0.1,0-0.3-0.1-0.3-0.1s-0.1-0.2-0.1-0.4V14.8c0-0.2,0.1-0.3,0.1-0.4s0.2-0.1,0.3-0.1h9c0.1,0,0.3,0.1,0.4,0.1
	s0.1,0.2,0.1,0.4v1.4c0,0.1-0.1,0.3-0.1,0.4s-0.2,0.1-0.4,0.1H49v3.6h6.3c0.1,0,0.3,0,0.4,0.1c0.1,0.1,0.1,0.2,0.1,0.4v1.3
	c0,0.2-0.1,0.3-0.1,0.4c-0.1,0.1-0.2,0.1-0.4,0.1H49v3.8h6.9c0.2,0,0.3,0.1,0.4,0.1s0.1,0.2,0.1,0.4v1.4c0,0.1-0.1,0.3-0.1,0.4
	s-0.2,0.1-0.4,0.1H46.7z"/>
<path d="M59.5,28.7c-0.1,0-0.3-0.1-0.3-0.1S59,28.4,59,28.2V14.8c0-0.2,0.1-0.3,0.1-0.4s0.2-0.1,0.3-0.1h5.3c1.7,0,3,0.4,3.9,1.2
	c1,0.8,1.4,1.9,1.4,3.4c0,1-0.2,1.9-0.8,2.5c-0.5,0.7-1.2,1.2-2,1.5l3,5.3c0,0.1,0.1,0.2,0.1,0.2c0,0.1,0,0.2-0.1,0.3
	c-0.1,0.1-0.2,0.1-0.3,0.1h-1.9c-0.2,0-0.4-0.1-0.5-0.2s-0.2-0.2-0.3-0.4l-2.7-4.9h-2.9v4.9c0,0.1,0,0.3-0.1,0.4
	c-0.1,0.1-0.2,0.1-0.4,0.1H59.5z M61.8,21h2.9c0.8,0,1.5-0.2,1.9-0.6c0.4-0.4,0.6-0.9,0.6-1.6s-0.2-1.2-0.6-1.6s-1-0.6-1.9-0.6h-2.9
	V21z"/>
<path d="M78.3,28.9c-1.2,0-2.3-0.2-3.1-0.6c-0.9-0.4-1.6-1-2.1-1.9s-0.8-1.9-0.8-3.2c0-0.6,0-1.2,0-1.8s0-1.2,0-1.8
	c0-1.2,0.3-2.3,0.8-3.1c0.5-0.8,1.2-1.5,2.1-1.9c0.9-0.4,1.9-0.6,3.1-0.6c1.2,0,2.2,0.2,3.1,0.6c0.9,0.4,1.6,1.1,2.1,1.9
	c0.5,0.8,0.8,1.9,0.8,3.1c0,0.6,0,1.2,0,1.8c0,0.6,0,1.2,0,1.8c0,1.3-0.3,2.3-0.8,3.2c-0.5,0.8-1.2,1.5-2.1,1.9
	C80.5,28.7,79.5,28.9,78.3,28.9z M78.3,26.6c0.9,0,1.6-0.3,2.2-0.8c0.6-0.5,0.9-1.4,0.9-2.6c0-0.6,0-1.2,0-1.7c0-0.5,0-1.1,0-1.7
	c0-0.8-0.2-1.4-0.4-1.9c-0.3-0.5-0.6-0.9-1.1-1.1c-0.5-0.2-1-0.3-1.6-0.3c-0.6,0-1.1,0.1-1.5,0.3c-0.5,0.2-0.8,0.6-1.1,1.1
	c-0.3,0.5-0.4,1.1-0.4,1.9c0,0.6,0,1.1,0,1.7c0,0.5,0,1.1,0,1.7c0,1.2,0.3,2.1,0.9,2.6C76.7,26.3,77.4,26.6,78.3,26.6z"/>
<path d="M33,11.7c-0.1,0-0.1,0-0.2-0.1c-0.1-0.1-0.1-0.1-0.1-0.2V3.2c0-0.1,0-0.2,0.1-0.2s0.1-0.1,0.2-0.1h3.3
	c0.6,0,1.1,0.1,1.4,0.3C38,3.4,38.3,3.7,38.5,4c0.2,0.3,0.3,0.7,0.3,1.1c0,0.4-0.1,0.7-0.2,0.9c-0.1,0.3-0.3,0.5-0.4,0.6
	S37.8,7,37.7,7.1c0.3,0.2,0.6,0.4,0.9,0.8c0.3,0.4,0.4,0.8,0.4,1.3c0,0.4-0.1,0.8-0.3,1.2c-0.2,0.4-0.5,0.7-0.9,0.9
	s-0.9,0.4-1.4,0.4L33,11.7L33,11.7z M33.5,6.7h2.6c0.6,0,1.1-0.1,1.4-0.4C37.8,6,38,5.6,38,5.2c0-0.5-0.2-0.9-0.5-1.1
	s-0.8-0.4-1.4-0.4h-2.6V6.7z M33.5,10.9h2.7c0.6,0,1.1-0.2,1.4-0.5c0.3-0.3,0.5-0.7,0.5-1.2c0-0.5-0.2-0.9-0.5-1.2
	c-0.3-0.3-0.8-0.5-1.4-0.5h-2.7V10.9z"/>
<path d="M43.8,11.8c-0.7,0-1.3-0.1-1.8-0.4c-0.5-0.2-0.9-0.6-1.1-1.1c-0.3-0.5-0.4-1.2-0.4-1.9c0-0.4,0-0.7,0-1c0-0.3,0-0.7,0-1.1
	c0-0.8,0.2-1.4,0.4-1.9c0.3-0.5,0.7-0.9,1.1-1.1s1.1-0.4,1.7-0.4c0.6,0,1.2,0.1,1.7,0.4s0.9,0.6,1.1,1.1c0.3,0.5,0.4,1.2,0.4,1.9
	c0,0.4,0,0.7,0,1.1c0,0.3,0,0.7,0,1c0,0.8-0.2,1.4-0.4,1.9c-0.3,0.5-0.6,0.9-1.1,1.1C45.1,11.7,44.5,11.8,43.8,11.8z M43.8,11.1
	c0.7,0,1.3-0.2,1.8-0.6s0.7-1.1,0.7-2.1c0-0.4,0-0.7,0-1s0-0.6,0-1c0-0.6-0.1-1.2-0.4-1.6c-0.2-0.4-0.5-0.7-0.9-0.9
	c-0.4-0.2-0.8-0.3-1.3-0.3c-0.5,0-0.9,0.1-1.3,0.3c-0.4,0.2-0.7,0.5-0.9,0.9c-0.2,0.4-0.3,0.9-0.4,1.6c0,0.4,0,0.7,0,1s0,0.6,0,1
	c0,1,0.3,1.7,0.8,2.1C42.5,10.8,43.1,11.1,43.8,11.1z"/>
<path d="M52.1,11.8c-0.7,0-1.3-0.1-1.8-0.4c-0.5-0.2-0.9-0.6-1.1-1.1c-0.3-0.5-0.4-1.2-0.4-1.9c0-0.4,0-0.7,0-1c0-0.3,0-0.7,0-1.1
	c0-0.8,0.2-1.4,0.4-1.9c0.3-0.5,0.7-0.9,1.1-1.1s1.1-0.4,1.7-0.4c0.7,0,1.2,0.1,1.7,0.4s0.9,0.6,1.1,1.1c0.3,0.5,0.4,1.2,0.4,1.9
	c0,0.4,0,0.7,0,1.1c0,0.3,0,0.7,0,1c0,0.8-0.2,1.4-0.4,1.9c-0.3,0.5-0.6,0.9-1.1,1.1C53.4,11.7,52.8,11.8,52.1,11.8z M52.1,11.1
	c0.7,0,1.3-0.2,1.8-0.6s0.7-1.1,0.7-2.1c0-0.4,0-0.7,0-1s0-0.6,0-1c0-0.6-0.1-1.2-0.4-1.6C54,4.3,53.7,4,53.4,3.8
	c-0.4-0.2-0.8-0.3-1.3-0.3c-0.5,0-0.9,0.1-1.3,0.3c-0.4,0.2-0.7,0.5-0.9,0.9c-0.2,0.4-0.3,0.9-0.4,1.6c0,0.4,0,0.7,0,1s0,0.6,0,1
	c0,1,0.3,1.7,0.8,2.1C50.8,10.8,51.4,11.1,52.1,11.1z"/>
<path d="M57.7,11.7c-0.1,0-0.1,0-0.2-0.1c-0.1-0.1-0.1-0.1-0.1-0.2V3.2c0-0.1,0-0.2,0.1-0.2s0.1-0.1,0.2-0.1h0.2
	c0.1,0,0.2,0,0.2,0.1s0.1,0.1,0.1,0.2v3.3L62,3.1C62,3.1,62,3,62.1,3s0.2-0.1,0.3-0.1h0.2c0.1,0,0.1,0,0.2,0.1
	c0.1,0.1,0.1,0.1,0.1,0.2c0,0.1,0,0.1-0.1,0.2l-4.2,3.8l4.5,4.1c0.1,0.1,0.1,0.1,0.1,0.2s0,0.1-0.1,0.2c0,0.1-0.1,0.1-0.2,0.1h-0.2
	c-0.1,0-0.2,0-0.3-0.1c-0.1-0.1-0.1-0.1-0.2-0.1l-4-3.7v3.6c0,0.1,0,0.1-0.1,0.2c-0.1,0.1-0.1,0.1-0.2,0.1H57.7z"/>
<path d="M64.8,11.7c-0.1,0-0.1,0-0.2-0.1c0-0.1-0.1-0.1-0.1-0.2V3.2c0-0.1,0-0.1,0.1-0.2c0.1-0.1,0.1-0.1,0.2-0.1h0.2
	c0.1,0,0.1,0,0.2,0.1s0.1,0.1,0.1,0.2v7.7h4.3c0.1,0,0.2,0,0.2,0.1c0.1,0,0.1,0.1,0.1,0.2v0.2c0,0.1,0,0.1-0.1,0.2
	c-0.1,0.1-0.1,0.1-0.2,0.1L64.8,11.7L64.8,11.7z"/>
<path d="M71.7,11.7c-0.1,0-0.2,0-0.2-0.1c-0.1-0.1-0.1-0.1-0.1-0.2V3.2c0-0.1,0-0.2,0.1-0.2c0-0.1,0.1-0.1,0.2-0.1h4.9
	c0.1,0,0.2,0,0.2,0.1s0.1,0.1,0.1,0.2v0.2c0,0.1,0,0.2-0.1,0.2c-0.1,0-0.1,0.1-0.2,0.1h-4.4v3.2h4.1c0.1,0,0.2,0,0.2,0.1
	c0,0,0.1,0.1,0.1,0.2v0.2c0,0.1,0,0.1-0.1,0.2c-0.1,0.1-0.1,0.1-0.2,0.1h-4.1v3.3h4.5c0.1,0,0.2,0,0.2,0.1c0.1,0.1,0.1,0.1,0.1,0.2
	v0.2c0,0.1,0,0.2-0.1,0.2c0,0-0.1,0.1-0.2,0.1L71.7,11.7L71.7,11.7z"/>
<path d="M81,11.7c-0.1,0-0.1,0-0.2-0.1c-0.1-0.1-0.1-0.1-0.1-0.2V3.7h-2.5c-0.1,0-0.1,0-0.2-0.1C78,3.5,78,3.5,78,3.4V3.2
	C78,3.1,78,3,78,3c0.1-0.1,0.1-0.1,0.2-0.1h5.7c0.1,0,0.2,0,0.2,0.1c0.1,0.1,0.1,0.1,0.1,0.2v0.2c0,0.1,0,0.2-0.1,0.2
	c0,0-0.1,0.1-0.2,0.1h-2.5v7.7c0,0.1,0,0.1-0.1,0.2c-0.1,0.1-0.1,0.1-0.2,0.1L81,11.7L81,11.7z"/>
</svg>
