<?xml version="1.0" encoding="utf-8"?>
<!-- Generator: Adobe Illustrator 24.3.0, SVG Export Plug-In . SVG Version: 6.00 Build 0)  -->
<svg version="1.1" id="Layer_1" xmlns="http://www.w3.org/2000/svg" xmlns:xlink="http://www.w3.org/1999/xlink" x="0px" y="0px"
	 viewBox="0 0 48 48" style="enable-background:new 0 0 48 48;" xml:space="preserve">
<style type="text/css">
	.st0{fill:#EDEDE9;}
	.st1{fill:#FFFFFF;}
	.st2{fill:#231F20;}
</style>
<path class="st0" d="M44.8,46.8H3.3c-1.2,0-2.2-1-2.2-2.2V3.1c0-1.2,1-2.2,2.2-2.2h41.5c1.2,0,2.2,1,2.2,2.2v41.5
	C47,45.8,46,46.8,44.8,46.8z"/>
<polygon class="st1" points="40.8,30.5 36.6,26.3 36.6,3 9.4,3 9.4,40.3 30.8,40.3 30.8,44.6 36.6,44.6 36.8,42.6 40.8,38.6 "/>
<path class="st2" d="M42.1,29.7L38,25.6V2.3c0-0.4-0.3-0.7-0.7-0.7H8.7C8.3,1.6,8,1.9,8,2.3V41c0,0.4,0.3,0.7,0.7,0.7h20.7v3.6
	c0,0.4,0.3,0.7,0.7,0.7h7.1c0.4,0,0.7-0.3,0.7-0.7v-1.9l4.1-4.1c0.1-0.1,0.2-0.3,0.2-0.5v-8.6C42.3,30.1,42.2,29.9,42.1,29.7z
	 M29.4,30.2v10h-20V3h27.1v31.5h-0.7c-0.4,0-0.7-0.3-0.7-0.7v-3.6c0-1.6-1.3-2.9-2.9-2.9C30.7,27.4,29.4,28.7,29.4,30.2z M40.8,38.6
	l-4.1,4.1c-0.1,0.1-0.2,0.3-0.2,0.5v1.4h-5.7V30.2c0-0.8,0.6-1.4,1.4-1.4c0.8,0,1.4,0.6,1.4,1.4v3.6c0,1.2,1,2.2,2.1,2.2h1.4
	c0.4,0,0.7-0.3,0.7-0.7v-7.6l2.9,2.9V38.6z"/>
<path d="M34.4,23.1c0.4,0,0.7-0.3,0.7-0.7V5.2c0-0.4-0.3-0.7-0.7-0.7H11.6c-0.4,0-0.7,0.3-0.7,0.7v17.2c0,0.4,0.3,0.7,0.7,0.7H34.4z
	 M12.3,5.9h21.4v15.8H12.3V5.9z"/>
<path d="M11.6,24.9h22.8v1.4H11.6V24.9z"/>
<path d="M11.6,28.6H28V30H11.6V28.6z"/>
<path d="M11.6,32.3H28v1.4H11.6V32.3z"/>
<path d="M11.6,36H28v1.4H11.6V36z"/>
<path d="M14.3,14.2c0,0-0.1,0-0.1-0.1c0,0-0.1-0.1-0.1-0.1v-0.5c0-0.1,0-0.1,0-0.2c0,0,0.1-0.1,0.1-0.1l2.4-3.2h-2.3
	c-0.1,0-0.1,0-0.1-0.1c0,0,0-0.1,0-0.1V9.5c0-0.1,0-0.1,0-0.1c0,0,0.1-0.1,0.1-0.1h3.4c0.1,0,0.1,0,0.1,0.1c0,0,0.1,0.1,0.1,0.1v0.5
	c0,0.1,0,0.1,0,0.1c0,0,0,0.1-0.1,0.1l-2.4,3.2h2.4c0.1,0,0.1,0,0.1,0.1c0,0,0.1,0.1,0.1,0.1v0.5c0,0,0,0.1-0.1,0.1
	c0,0-0.1,0.1-0.1,0.1L14.3,14.2L14.3,14.2z"/>
<path d="M18.9,14.2c0,0-0.1,0-0.1-0.1c0,0-0.1-0.1-0.1-0.1V9.5c0-0.1,0-0.1,0.1-0.1c0,0,0.1-0.1,0.1-0.1H22c0.1,0,0.1,0,0.1,0.1
	c0,0,0.1,0.1,0.1,0.1v0.5c0,0,0,0.1-0.1,0.1c0,0-0.1,0.1-0.1,0.1h-2.3v1.2h2.2c0.1,0,0.1,0,0.1,0c0,0,0.1,0.1,0.1,0.1V12
	c0,0.1,0,0.1-0.1,0.1c0,0-0.1,0-0.1,0h-2.2v1.3h2.4c0.1,0,0.1,0,0.1,0.1c0,0,0.1,0.1,0.1,0.1v0.5c0,0,0,0.1-0.1,0.1
	c0,0-0.1,0.1-0.1,0.1L18.9,14.2L18.9,14.2z"/>
<path d="M23.3,14.2c0,0-0.1,0-0.1-0.1c0,0-0.1-0.1-0.1-0.1V9.5c0-0.1,0-0.1,0.1-0.1c0,0,0.1-0.1,0.1-0.1h1.8c0.6,0,1,0.1,1.3,0.4
	c0.3,0.3,0.5,0.6,0.5,1.1c0,0.4-0.1,0.6-0.3,0.9c-0.2,0.2-0.4,0.4-0.7,0.5l1,1.8c0,0,0,0.1,0,0.1c0,0,0,0.1,0,0.1c0,0-0.1,0-0.1,0
	h-0.6c-0.1,0-0.1,0-0.2-0.1c0,0-0.1-0.1-0.1-0.1l-0.9-1.7h-1v1.7c0,0,0,0.1,0,0.1c0,0-0.1,0.1-0.1,0.1L23.3,14.2L23.3,14.2z
	 M24.1,11.6h1c0.3,0,0.5-0.1,0.6-0.2c0.1-0.1,0.2-0.3,0.2-0.5c0-0.2-0.1-0.4-0.2-0.6c-0.1-0.1-0.3-0.2-0.6-0.2h-1L24.1,11.6
	L24.1,11.6z"/>
<path d="M29.7,14.3c-0.4,0-0.8-0.1-1.1-0.2c-0.3-0.1-0.5-0.4-0.7-0.6s-0.3-0.7-0.3-1.1c0-0.2,0-0.4,0-0.6c0-0.2,0-0.4,0-0.6
	c0-0.4,0.1-0.8,0.3-1.1s0.4-0.5,0.7-0.6c0.3-0.1,0.7-0.2,1.1-0.2c0.4,0,0.8,0.1,1.1,0.2c0.3,0.1,0.5,0.4,0.7,0.6
	c0.2,0.3,0.3,0.6,0.3,1.1c0,0.2,0,0.4,0,0.6c0,0.2,0,0.4,0,0.6c0,0.4-0.1,0.8-0.3,1.1c-0.2,0.3-0.4,0.5-0.7,0.6
	C30.5,14.2,30.1,14.3,29.7,14.3z M29.7,13.5c0.3,0,0.6-0.1,0.7-0.3c0.2-0.2,0.3-0.5,0.3-0.9c0-0.2,0-0.4,0-0.6s0-0.4,0-0.6
	c0-0.3-0.1-0.5-0.2-0.7c-0.1-0.2-0.2-0.3-0.4-0.4c-0.2-0.1-0.3-0.1-0.5-0.1c-0.2,0-0.4,0-0.5,0.1c-0.2,0.1-0.3,0.2-0.4,0.4
	c-0.1,0.2-0.1,0.4-0.2,0.7c0,0.2,0,0.4,0,0.6c0,0.2,0,0.4,0,0.6c0,0.4,0.1,0.7,0.3,0.9C29.2,13.4,29.4,13.5,29.7,13.5z"/>
</svg>
